Coordinates
nRows=213
nColumns=2
inDegrees=yes
endheader
time	ankle_angle_r	
6.3871	 18.661299	
6.42036	 18.667158	
6.45363	 18.676629	
6.4869	 18.684269	
6.52016	 18.682529	
6.55343	 18.674933	
6.58669	 18.667243	
6.61996	 18.653972	
6.65323	 18.635151	
6.68649	 18.624862	
6.71976	 18.628509	
6.75302	 18.636882	
6.78629	 18.639869	
6.81956	 18.633637	
6.85282	 18.626688	
6.88609	 18.630655	
6.91935	 18.639058	
6.95262	 18.638276	
6.98589	 18.630794	
7.01915	 18.626642	
7.05242	 18.630477	
7.08569	 18.641463	
7.11895	 18.650927	
7.15222	 18.650056	
7.18548	 18.641638	
7.21875	 18.636138	
7.25202	 18.644286	
7.28528	 18.667859	
7.31855	 18.691482	
7.35181	 18.697133	
7.38508	 18.683993	
7.41835	 18.667149	
7.45161	 18.662847	
7.48488	 18.672075	
7.51815	 18.680327	
7.55141	 18.675869	
7.58468	 18.657905	
7.61794	 18.632915	
7.65121	 18.613089	
7.68448	 18.607259	
7.71774	 18.612433	
7.75101	 18.621347	
7.78427	 18.629470	
7.81754	 18.633864	
7.85081	 18.632447	
7.88407	 18.622989	
7.91734	 18.606916	
7.9506	 18.593150	
7.98387	 18.590245	
8.01714	 18.601011	
8.0504	 18.622724	
8.08367	 18.644542	
8.11694	 18.653722	
8.1502	 18.646788	
8.18347	 18.629961	
8.21673	 18.612997	
8.25	 18.603899	
8.28327	 18.603940	
8.31653	 18.609289	
8.3498	 18.615887	
8.38306	 18.616162	
8.41633	 18.602562	
8.4496	 18.580992	
8.48286	 18.568240	
8.51613	 18.574555	
8.5494	 18.593576	
8.58266	 18.609728	
8.61593	 18.616999	
8.64919	 18.619618	
8.68246	 18.615608	
8.71573	 18.603865	
8.74899	 18.597088	
8.78226	 18.605382	
8.81552	 18.622160	
8.84879	 18.633545	
8.88206	 18.633713	
8.91532	 18.633339	
8.94859	 18.643556	
8.98185	 18.653680	
9.01512	 18.649549	
9.04839	 18.640920	
9.08165	 18.643919	
9.11492	 18.655872	
9.14819	 18.665114	
9.18145	 18.667733	
9.21472	 18.667968	
9.24798	 18.670949	
9.28125	 18.676663	
9.31452	 18.682664	
9.34778	 18.689510	
9.38105	 18.697737	
9.41431	 18.705064	
9.44758	 18.709608	
9.48085	 18.711693	
9.51411	 18.713881	
9.54738	 18.718648	
9.58065	 18.724164	
9.61391	 18.727233	
9.64718	 18.728295	
9.68044	 18.728121	
9.71371	 18.725269	
9.74698	 18.720440	
9.78024	 18.716479	
9.81351	 18.710687	
9.84677	 18.695096	
9.88004	 18.670044	
9.91331	 18.646687	
9.94657	 18.631727	
9.97984	 18.624846	
10.0131	 18.628850	
10.0464	 18.644257	
10.0796	 18.660770	
10.1129	 18.667253	
10.1462	 18.660968	
10.1794	 18.646361	
10.2127	 18.634528	
10.246	 18.633309	
10.2792	 18.635114	
10.3125	 18.629696	
10.3458	 18.620520	
10.379	 18.617709	
10.4123	 18.626552	
10.4456	 18.642490	
10.4788	 18.655241	
10.5121	 18.661502	
10.5454	 18.661924	
10.5786	 18.653567	
10.6119	 18.640554	
10.6452	 18.633393	
10.6784	 18.636011	
10.7117	 18.645282	
10.745	 18.647138	
10.7782	 18.625140	
10.8115	 18.591117	
10.8448	 18.575648	
10.878	 18.588051	
10.9113	 18.615082	
10.9446	 18.639760	
10.9778	 18.649130	
11.0111	 18.642613	
11.0444	 18.630551	
11.0776	 18.620897	
11.1109	 18.612769	
11.1442	 18.600543	
11.1774	 18.588794	
11.2107	 18.595803	
11.244	 18.625992	
11.2772	 18.657179	
11.3105	 18.666639	
11.3437	 18.650417	
11.377	 18.621991	
11.4103	 18.603727	
11.4435	 18.605664	
11.4768	 18.613067	
11.5101	 18.607078	
11.5433	 18.587955	
11.5766	 18.573020	
11.6099	 18.576431	
11.6431	 18.590737	
11.6764	 18.597730	
11.7097	 18.590560	
11.7429	 18.575927	
11.7762	 18.570313	
11.8095	 18.586393	
11.8427	 18.614922	
11.876	 18.637139	
11.9093	 18.646591	
11.9425	 18.648248	
11.9758	 18.651471	
12.0091	 18.663426	
12.0423	 18.679813	
12.0756	 18.690010	
12.1089	 18.690802	
12.1421	 18.686213	
12.1754	 18.681802	
12.2087	 18.681713	
12.2419	 18.684740	
12.2752	 18.688368	
12.3085	 18.693568	
12.3417	 18.698185	
12.375	 18.697797	
12.4083	 18.695338	
12.4415	 18.696270	
12.4748	 18.700634	
12.5081	 18.705951	
12.5413	 18.708144	
12.5746	 18.704273	
12.6079	 18.698158	
12.6411	 18.696204	
12.6744	 18.701322	
12.7077	 18.710487	
12.7409	 18.715959	
12.7742	 18.714342	
12.8075	 18.708170	
12.8407	 18.697334	
12.874	 18.682185	
12.9073	 18.671062	
12.9405	 18.673160	
12.9738	 18.686371	
13.0071	 18.693971	
13.0403	 18.676348	
13.0736	 18.634846	
13.1069	 18.597674	
13.1401	 18.590116	
13.1734	 18.607797	
13.2067	 18.628137	
13.2399	 18.638146	
13.2732	 18.644349	
13.3065	 18.657281	
13.3397	 18.673923	
13.373	 18.686008	
13.4062	 18.695426	
13.4395	 18.707219	
